<svg xmlns="http://www.w3.org/2000/svg" version="1.1" xmlns:xlink="http://www.w3.org/1999/xlink" xmlns:svgjs="http://svgjs.com/svgjs" width="24" height="24"><svg width="24" height="24" viewBox="0 0 24 24" fill="none" xmlns="http://www.w3.org/2000/svg">
<g id="SvgjsG1002" clip-path="url(#clip0_805_9083)">
<path id="SvgjsPath1001" d="M12.0278 23.7005C18.6706 23.7005 24.0557 18.395 24.0557 11.8502C24.0557 5.30554 18.6706 0 12.0278 0C5.38504 0 0 5.30554 0 11.8502C0 18.395 5.38504 23.7005 12.0278 23.7005Z" fill="#1A1E22"></path>
<path id="SvgjsPath1000" fill-rule="evenodd" clip-rule="evenodd" d="M15.4121 13.3363L16.3171 13.8532L17.2222 14.3701C17.432 14.4864 17.5763 14.719 17.5632 14.9645V17.0192C17.5632 17.2648 17.432 17.4845 17.2222 17.6137L16.3171 18.1307L15.4121 18.6476C15.2022 18.7768 14.9399 18.7768 14.7169 18.6476L13.8118 18.1307L12.9068 17.6137C12.697 17.4974 12.5527 17.2648 12.5658 17.0192V15.0809L8.34224 12.6772L9.16864 13.892L8.13244 14.4864C7.92257 14.6156 7.66025 14.6156 7.43723 14.4864L6.5322 13.9695L5.62716 13.4525C5.41729 13.3363 5.28613 13.1165 5.28613 12.8711V10.8034C5.28613 10.5578 5.41729 10.3382 5.62716 10.2089L6.5322 9.69204L7.43723 9.17514C7.64708 9.04584 7.9094 9.04584 8.13244 9.17514L9.03748 9.69204L9.83754 10.1443L12.5658 8.59359V6.66807C12.5658 6.42253 12.697 6.20285 12.9068 6.07362L13.8118 5.5567L14.7169 5.03979C14.9267 4.91056 15.189 4.91056 15.4121 5.03979L16.3171 5.5567L17.2222 6.07362C17.432 6.18993 17.5763 6.42253 17.5632 6.66807V8.72281C17.5632 8.96836 17.432 9.18804 17.2222 9.31727L16.3171 9.83416L15.4121 10.3511C15.2022 10.4803 14.9399 10.4803 14.7169 10.3511L13.8118 9.83416L13.7594 9.80829L14.7169 8.42559L13.0248 9.39481L10.2966 10.9455V12.7676L13.0248 14.3184L13.825 13.8661L14.73 13.3492C14.9267 13.2071 15.2022 13.22 15.4121 13.3363Z" fill="white"></path>
</g>
</svg><style>@media (prefers-color-scheme: light) { :root { filter: none; } }
@media (prefers-color-scheme: dark) { :root { filter: invert(100%); } }
</style></svg>