<svg width="22" height="20" viewBox="0 0 22 20" fill="none" xmlns="http://www.w3.org/2000/svg">
<g opacity="0.3">
<path d="M9.92784 2.33172V16.4074C9.92784 16.9136 9.23725 17.1756 8.81464 16.8684C7.00556 15.553 5.04364 15.3981 3.77893 15.5688C3.38893 15.6214 3 15.3495 3 14.9746V0.79897C3 0.569504 3.14989 0.361865 3.37998 0.293409C6.30764 -0.577621 8.60382 0.675779 9.64383 1.64315C9.83689 1.82272 9.92784 2.07479 9.92784 2.33172Z" fill="currentColor"/>
<path d="M12.0722 2.33172V16.4074C12.0722 16.9136 12.7628 17.1756 13.1854 16.8684C14.9945 15.553 16.9564 15.3981 18.2211 15.5688C18.6111 15.6214 19 15.3495 19 14.9746V0.79897C19 0.569504 18.8501 0.361865 18.62 0.293409C15.6924 -0.577621 13.3962 0.67578 12.3562 1.64315C12.1631 1.82272 12.0722 2.07479 12.0722 2.33172Z" fill="currentColor"/>
</g>
<path d="M1.08069 19.9057C3.78406 18.3548 7.18324 19.0875 9.23298 19.9462C9.50321 20.0594 9.76633 19.7767 9.58707 19.5452C8.05632 17.5681 5.49734 17.1944 3.59169 17.3306C2.81745 17.3859 2.08108 16.8114 2.08108 16.0361V1.29739C2.08108 1.07114 1.83792 0.927998 1.63977 1.03759L0.306564 1.77498C0.117392 1.87961 0 2.07857 0 2.29457V19.354C0 19.8686 0.633976 20.162 1.08069 19.9057Z" fill="currentColor"/>
<path d="M20.9193 19.9057C18.2159 18.3548 14.8168 19.0875 12.767 19.9462C12.4968 20.0594 12.2337 19.7767 12.4129 19.5452C13.9437 17.5681 16.5027 17.1944 18.4083 17.3306C19.1826 17.3859 19.9189 16.8114 19.9189 16.0361V1.29739C19.9189 1.07114 20.1621 0.927998 20.3602 1.03759L21.6934 1.77498C21.8826 1.87961 22 2.07857 22 2.29457V19.354C22 19.8686 21.366 20.162 20.9193 19.9057Z" fill="currentColor"/>
</svg>