<svg width="56" height="56" viewBox="0 0 56 56" fill="none" xmlns="http://www.w3.org/2000/svg">
<path d="M39.013 44.2226L39.0294 44.2325L39.0466 44.2411C39.0616 44.2486 39.0768 44.2563 39.0922 44.264C39.5241 44.4803 40.0835 44.7605 40.6702 44.7605C41.5697 44.7605 42.3913 44.1797 42.8904 43.6806L42.9254 43.6456L42.9529 43.6044L52.2862 29.6044C52.5865 29.154 52.7202 28.5846 52.7202 28.0438C52.7202 27.5029 52.5865 26.9335 52.2862 26.4831L42.9592 12.4926C42.0926 11.061 40.3737 10.8151 39.013 11.6316C37.5719 12.4962 37.323 14.2202 38.1415 15.5843L38.1476 15.5945L38.1542 15.6044L46.3693 27.9271L38.1542 40.2498L38.1476 40.2597L38.1415 40.2699C37.323 41.634 37.5719 43.358 39.013 44.2226ZM16.7205 44.2411L16.7377 44.2325L16.7541 44.2226C18.1952 43.358 18.4441 41.634 17.6256 40.2699L17.6195 40.2597L17.6129 40.2498L9.39781 27.9271L17.6129 15.6044L17.6195 15.5945L17.6256 15.5843C18.4441 14.2202 18.1952 12.4962 16.7541 11.6316C15.3934 10.8151 13.6745 11.061 12.8079 12.4926L3.48085 26.4831C3.18057 26.9335 3.04688 27.5029 3.04688 28.0438C3.04688 28.5846 3.18057 29.154 3.48085 29.6044L12.8142 43.6044C13.3991 44.4818 14.2816 44.7605 15.0969 44.7605C15.6836 44.7605 16.243 44.4803 16.6749 44.264C16.6902 44.2563 16.7055 44.2486 16.7205 44.2411Z" fill="#F0F9FF" stroke="#1E3A8A"/>
<path d="M23.8186 44.7506L23.8672 44.7603H23.9167H23.9167H23.9168H23.9168H23.9169H23.9169H23.917H23.917H23.9171H23.9171H23.9172H23.9173H23.9174H23.9175H23.9176H23.9176H23.9177H23.9179H23.918H23.9181H23.9182H23.9183H23.9185H23.9186H23.9188H23.9189H23.9191H23.9192H23.9194H23.9195H23.9197H23.9199H23.9201H23.9203H23.9205H23.9207H23.9209H23.9211H23.9213H23.9215H23.9217H23.9219H23.9222H23.9224H23.9227H23.9229H23.9232H23.9234H23.9237H23.9239H23.9242H23.9245H23.9248H23.925H23.9253H23.9256H23.9259H23.9262H23.9265H23.9269H23.9272H23.9275H23.9278H23.9282H23.9285H23.9288H23.9292H23.9295H23.9299H23.9302H23.9306H23.931H23.9314H23.9317H23.9321H23.9325H23.9329H23.9333H23.9337H23.9341H23.9345H23.9349H23.9353H23.9358H23.9362H23.9366H23.9371H23.9375H23.9379H23.9384H23.9388H23.9393H23.9398H23.9402H23.9407H23.9412H23.9417H23.9421H23.9426H23.9431H23.9436H23.9441H23.9446H23.9451H23.9457H23.9462H23.9467H23.9472H23.9477H23.9483H23.9488H23.9494H23.9499H23.9505H23.951H23.9516H23.9521H23.9527H23.9533H23.9539H23.9544H23.955H23.9556H23.9562H23.9568H23.9574H23.958H23.9586H23.9592H23.9598H23.9605H23.9611H23.9617H23.9623H23.963H23.9636H23.9643H23.9649H23.9656H23.9662H23.9669H23.9675H23.9682H23.9689H23.9695H23.9702H23.9709H23.9716H23.9723H23.973H23.9737H23.9744H23.9751H23.9758H23.9765H23.9772H23.9779H23.9787H23.9794H23.9801H23.9808H23.9816H23.9823H23.9831H23.9838H23.9846H23.9853H23.9861H23.9868H23.9876H23.9884H23.9892H23.9899H23.9907H23.9915H23.9923H23.9931H23.9939H23.9947H23.9955H23.9963H23.9971H23.9979H23.9987H23.9995H24.0003H24.0012H24.002H24.0028H24.0037H24.0045H24.0053H24.0062H24.007H24.0079H24.0087H24.0096H24.0105H24.0113H24.0122H24.0131H24.0139H24.0148H24.0157H24.0166H24.0175H24.0184H24.0192H24.0201H24.021H24.0219H24.0228H24.0238H24.0247H24.0256H24.0265H24.0274H24.0283H24.0293H24.0302H24.0311H24.0321H24.033H24.034H24.0349H24.0358H24.0368H24.0378H24.0387H24.0397H24.0406H24.0416H24.0426H24.0435H24.0445H24.0455H24.0465H24.0475H24.0484H24.0494H24.0504H24.0514H24.0524H24.0534H24.0544H24.0554H24.0564H24.0574H24.0584H24.0595H24.0605H24.0615H24.0625H24.0636H24.0646H24.0656H24.0666H24.0677H24.0687H24.0698H24.0708H24.0719H24.0729H24.074H24.075H24.0761H24.0771H24.0782H24.0793H24.0803H24.0814H24.0825H24.0836H24.0846H24.0857H24.0868H24.0879H24.089H24.0901H24.0911H24.0922H24.0933H24.0944H24.0955H24.0966H24.0978H24.0989H24.1H24.1011H24.1022H24.1033H24.1044H24.1056H24.1067H24.1078H24.1089H24.1101H24.1112H24.1123H24.1135H24.1146H24.1158H24.1169H24.1181H24.1192H24.1204H24.1215H24.1227H24.1238H24.125H24.1261H24.1273H24.1285H24.1296H24.1308H24.132H24.1332H24.1343H24.1355H24.1367H24.1379H24.1391H24.1402H24.1414H24.1426H24.1438H24.145H24.1462H24.1474H24.1486H24.1498H24.151H24.1522H24.1534H24.1546H24.1558H24.157H24.1583H24.1595H24.1607H24.1619H24.1631H24.1644H24.1656H24.1668H24.168H24.1693H24.1705H24.1717H24.173H24.1742H24.1754H24.1767H24.1779H24.1792H24.1804H24.1816H24.1829H24.1841H24.1854H24.1866H24.1879H24.1892H24.1904H24.1917H24.1929H24.1942H24.1955H24.1967H24.198H24.1993H24.2005H24.2018H24.2031H24.2043H24.2056H24.2069H24.2082H24.2094H24.2107H24.212H24.2133H24.2146H24.2159H24.2171H24.2184H24.2197H24.221H24.2223H24.2236H24.2249H24.2262H24.2275H24.2288H24.2301H24.2314H24.2327H24.234H24.2353H24.2366H24.2379H24.2392H24.2405H24.2418H24.2431H24.2444H24.2457H24.2471H24.2484H24.2497H24.251H24.2523H24.2536H24.255H24.2563H24.2576H24.2589H24.2603H24.2616H24.2629H24.2642H24.2656H24.2669H24.2682H24.2695H24.2709H24.2722H24.2735H24.2749H24.2762H24.2775H24.2789H24.2802H24.2815H24.2829H24.2842H24.2856H24.2869H24.2882H24.2896H24.2909H24.2923H24.2936H24.295H24.2963H24.2977H24.299H24.3004H24.3017H24.303H24.3044H24.3057H24.3071H24.3084H24.3098H24.3112H24.3125H24.3139H24.3152H24.3166H24.3179H24.3193H24.3206H24.322H24.3233H24.3247H24.3261H24.3274H24.3288H24.3301H24.3315H24.3329H24.3342H24.3356H24.3369H24.3383H24.3397H24.341H24.3424H24.3437H24.3451H24.3465H24.3478H24.3492H24.3506H24.3519H24.3533H24.3547H24.356H24.3574H24.3588H24.3601H24.3615H24.3629H24.3642H24.3656H24.367H24.3683H24.3697H24.3711H24.3724H24.3738H24.3752H24.3765H24.3779H24.3793H24.3806H24.382H24.3834C24.9643 44.7603 25.5842 44.5468 26.0899 44.2097C26.5934 43.8741 27.0455 43.3732 27.2018 42.7484L34.1941 14.7792C34.481 14.0269 34.3165 13.2338 33.9392 12.6163C33.5656 12.005 32.9486 11.5055 32.2262 11.3461C31.4767 11.064 30.6875 11.2287 30.0726 11.6046C29.4522 11.9837 28.9471 12.6137 28.7956 13.35L21.806 41.3083C21.5191 42.0606 21.6836 42.8537 22.0609 43.4711C22.4422 44.095 23.077 44.6023 23.8186 44.7506Z" fill="#EFF6FF" stroke="#1E3A8A"/>
</svg>
