<svg width="58" height="58" viewBox="0 0 58 58" fill="none" xmlns="http://www.w3.org/2000/svg">
<path opacity="0.7" d="M45.8 1H12.2C6.04 1 1 6.04 1 12.2V45.8C1 51.96 6.04 57 12.2 57H45.8C51.96 57 57 51.96 57 45.8V12.2C57 6.04 51.96 1 45.8 1ZM43 29C43 30.96 42.44 32.92 41.88 34.6H51.4V45.8C51.4 48.88 48.88 51.4 45.8 51.4H34.6V41.88C32.92 42.72 30.96 43 29 43C27.04 43 25.08 42.44 23.4 41.88V51.4H12.2C9.12 51.4 6.6 48.88 6.6 45.8V34.6H16.12C15.28 32.92 15 30.96 15 29C15 27.04 15.56 25.08 16.12 23.4H6.6V12.2C6.6 9.12 9.12 6.6 12.2 6.6H23.4V16.12C25.08 15.28 27.04 15 29 15C30.96 15 32.92 15.56 34.6 16.12V6.6H45.8C48.88 6.6 51.4 9.12 51.4 12.2V23.4H41.88C42.44 25.08 43 27.04 43 29Z" fill="#F0F9FF" stroke="#4338CA" stroke-linejoin="round"/>
<path d="M34.5999 4.36005C44.1199 6.60005 51.3999 13.8801 53.6399 23.4001H41.8799C40.4799 20.0401 37.9599 17.5201 34.5999 16.1201V4.36005ZM16.1199 23.4001C17.5199 20.0401 20.0399 17.5201 23.3999 16.1201V4.36005C13.8799 6.60005 6.59986 13.8801 4.35986 23.4001H16.1199ZM41.8799 34.6001C40.4799 37.9601 37.9599 40.4801 34.5999 41.8801V53.6401C44.1199 51.4001 51.3999 44.1201 53.6399 34.6001H41.8799ZM23.3999 41.8801C20.0399 40.4801 17.5199 37.9601 16.1199 34.6001H4.35986C6.59986 44.1201 13.8799 51.4001 23.3999 53.6401V41.8801Z" fill="white" stroke="#4338CA" stroke-linejoin="round"/>
</svg>
