<svg viewBox="0 0 56 56" xmlns="http://www.w3.org/2000/svg">
  <g stroke-linecap="round" stroke-width="1.5" fill="none" fill-rule="evenodd">
    <path
      d="M49.801 39.05A23.91 23.91 0 0052 29m-2.924-11.49C45.004 10.057 37.093 5 28 5c-2.798 0-5.484.479-7.981 1.359m-10.835 7.74A23.898 23.898 0 004 29c0 3.58.784 6.976 2.189 10.028"
      stroke="#79B8FF" />
    <path d="M8 43a3 3 0 100 6 3 3 0 000-6zm40 0a3.001 3.001 0 10.002 6.002A3.001 3.001 0 0048 43z"
      stroke="#79B8FF" stroke-linejoin="round" />
    <path
      d="M32 32.652A6.527 6.527 0 0027.666 31c-3.02 0-5.613 2.112-6.446 5.053M33 25a5 5 0 01-10 0"
      stroke="#2088FF" stroke-linejoin="round" />
    <path stroke="#79B8FF" stroke-linejoin="round"
      d="M12 11l3.999-3.999M16 11l-4.002-4.002M48 25l4-4M52 25l-4-4" />
    <path stroke="#2088FF" stroke-linejoin="round"
      d="M13 51h28M32.992 45.276l6.375-8.017c1.488.63 3.272.29 4.414-.977a3.883 3.883 0 00.658-4.193l-1.96 2.174-1.936-.151-.406-1.955 1.96-2.173a3.898 3.898 0 00-4.107 1.092 3.886 3.886 0 00-.512 4.485l-7.317 7.169c-1.32 1.314-.807 2.59-.236 3.105.67.601 1.888.845 3.067-.56zM22 24c0-2.143 1.209-4.012 3-5M34 24c0-2.143-1.209-4.012-3-5M28 18c-2.158 0-3 .666-3 .666s1.843 1.43 1.843 4.761V25M28 18c2.158 0 3 .666 3 .666s-1.896 1.307-1.896 4.761V25M21 25h14" />
    <path stroke="#79B8FF" stroke-linejoin="round" d="M25 46H11M45 46h-7" />
    <path
      d="M12 18.102v20.352c0 .3.225.546.5.546h3c.275 0 .5-.246.5-.546V18.102L14 15l-2 3.102zM16 36h-3"
      stroke="#2088FF" stroke-linejoin="round" />
  </g>
</svg>
