<svg width="56" height="56" viewBox="0 0 56 56" fill="none" xmlns="http://www.w3.org/2000/svg">
<path d="M47.3335 16.5H7.66683C7.08045 16.5 6.63066 16.3068 6.32872 16.0048C6.02677 15.7029 5.8335 15.2531 5.8335 14.6667V7.66671C5.8335 7.08033 6.02677 6.63054 6.32872 6.32859C6.63066 6.02665 7.08045 5.83337 7.66683 5.83337H47.3335C47.9199 5.83337 48.3697 6.02665 48.6716 6.32859C48.9736 6.63054 49.1668 7.08033 49.1668 7.66671V14.6667C49.1668 15.2531 48.9736 15.7029 48.6716 16.0048C48.3697 16.3068 47.9199 16.5 47.3335 16.5ZM7.66683 22.1667H17.0002C17.5865 22.1667 18.0363 22.36 18.3383 22.6619C18.6402 22.9639 18.8335 23.4137 18.8335 24V47.3334C18.8335 47.9198 18.6402 48.3695 18.3383 48.6715C18.0363 48.9734 17.5865 49.1667 17.0002 49.1667H7.66683C7.08045 49.1667 6.63066 48.9734 6.32872 48.6715C6.02677 48.3695 5.8335 47.9198 5.8335 47.3334V24C5.8335 23.4137 6.02677 22.9639 6.32872 22.6619C6.63066 22.36 7.08045 22.1667 7.66683 22.1667Z" fill="#F0F9FF" stroke="#1E3A8A"/>
<path d="M47.3333 49.1666H26.3333C25.747 49.1666 25.2972 48.9734 24.9952 48.6714C24.6933 48.3695 24.5 47.9197 24.5 47.3333V24C24.5 23.4136 24.6933 22.9638 24.9952 22.6618C25.2972 22.3599 25.747 22.1666 26.3333 22.1666H47.3333C47.9197 22.1666 48.3695 22.3599 48.6714 22.6618C48.9734 22.9638 49.1667 23.4136 49.1667 24V47.3333C49.1667 47.9197 48.9734 48.3695 48.6714 48.6714C48.3695 48.9734 47.9197 49.1666 47.3333 49.1666Z" fill="#DBEAFE" stroke="#1E3A8A"/>
</svg>
