<svg width="56" height="56" viewBox="0 0 56 56" fill="none" xmlns="http://www.w3.org/2000/svg">
<path d="M30.3332 21.5H30.8332V21V18.6666C30.8332 18.0803 31.0264 17.6305 31.3284 17.3285C31.6303 17.0266 32.0801 16.8333 32.6665 16.8333H34.9998C39.2426 16.8333 42.4998 13.5761 42.4998 9.33329V6.99996C42.4998 6.18634 42.2264 5.46946 41.7117 4.95474C41.197 4.44002 40.4801 4.16663 39.6665 4.16663C38.8529 4.16663 38.136 4.44002 37.6213 4.95474C37.1066 5.46946 36.8332 6.18634 36.8332 6.99996V9.33329C36.8332 9.91967 36.6399 10.3695 36.338 10.6714C36.036 10.9734 35.5862 11.1666 34.9998 11.1666H32.6665C28.4237 11.1666 25.1665 14.4238 25.1665 18.6666V21V21.5H25.6665H30.3332Z" fill="#F0F9FF" stroke="#1E3A8A"/>
<path d="M6.99984 51.8333H48.9998C49.8135 51.8333 50.5303 51.5599 51.0451 51.0452C51.5598 50.5305 51.8332 49.8136 51.8332 49V23.3333C51.8332 22.5197 51.5598 21.8028 51.0451 21.2881C50.5303 20.7734 49.8135 20.5 48.9998 20.5H6.99984C6.18621 20.5 5.46934 20.7734 4.95462 21.2881C4.43989 21.8028 4.1665 22.5197 4.1665 23.3333V49C4.1665 49.8136 4.43989 50.5305 4.95462 51.0452C5.46934 51.5599 6.18621 51.8333 6.99984 51.8333ZM9.83317 30.3333C9.83317 29.747 10.0264 29.2972 10.3284 28.9952C10.6303 28.6933 11.0801 28.5 11.6665 28.5C12.2529 28.5 12.7027 28.6933 13.0046 28.9952C13.3066 29.2972 13.4998 29.747 13.4998 30.3333C13.4998 30.9197 13.3066 31.3695 13.0046 31.6714C12.7027 31.9734 12.2529 32.1667 11.6665 32.1667C11.0801 32.1667 10.6303 31.9734 10.3284 31.6714C10.0264 31.3695 9.83317 30.9197 9.83317 30.3333ZM16.8332 30.3333C16.8332 29.747 17.0264 29.2972 17.3284 28.9952C17.6303 28.6933 18.0801 28.5 18.6665 28.5C19.2529 28.5 19.7027 28.6933 20.0046 28.9952C20.3066 29.2972 20.4998 29.747 20.4998 30.3333C20.4998 30.9197 20.3066 31.3695 20.0046 31.6714C19.7027 31.9734 19.2529 32.1667 18.6665 32.1667C18.0801 32.1667 17.6303 31.9734 17.3284 31.6714C17.0264 31.3695 16.8332 30.9197 16.8332 30.3333ZM23.8332 30.3333C23.8332 29.747 24.0264 29.2972 24.3284 28.9952C24.6303 28.6933 25.0801 28.5 25.6665 28.5C26.2529 28.5 26.7027 28.6933 27.0046 28.9952C27.3066 29.2972 27.4998 29.747 27.4998 30.3333C27.4998 30.9197 27.3066 31.3695 27.0046 31.6714C26.7027 31.9734 26.2529 32.1667 25.6665 32.1667C25.0801 32.1667 24.6303 31.9734 24.3284 31.6714C24.0264 31.3695 23.8332 30.9197 23.8332 30.3333ZM30.8332 30.3333C30.8332 29.747 31.0264 29.2972 31.3284 28.9952C31.6303 28.6933 32.0801 28.5 32.6665 28.5C33.2529 28.5 33.7027 28.6933 34.0046 28.9952C34.3066 29.2972 34.4998 29.747 34.4998 30.3333C34.4998 30.9197 34.3066 31.3695 34.0046 31.6714C33.7027 31.9734 33.2529 32.1667 32.6665 32.1667C32.0801 32.1667 31.6303 31.9734 31.3284 31.6714C31.0264 31.3695 30.8332 30.9197 30.8332 30.3333ZM19.1665 37.3333C19.1665 36.747 19.3598 36.2972 19.6617 35.9952C19.9637 35.6933 20.4135 35.5 20.9998 35.5C21.5862 35.5 22.036 35.6933 22.3379 35.9952C22.6399 36.2972 22.8332 36.747 22.8332 37.3333C22.8332 37.9197 22.6399 38.3695 22.3379 38.6714C22.036 38.9734 21.5862 39.1667 20.9998 39.1667C20.4135 39.1667 19.9637 38.9734 19.6617 38.6714C19.3598 38.3695 19.1665 37.9197 19.1665 37.3333ZM26.1665 37.3333C26.1665 36.747 26.3598 36.2972 26.6617 35.9952C26.9637 35.6933 27.4135 35.5 27.9998 35.5C28.5862 35.5 29.036 35.6933 29.3379 35.9952C29.6399 36.2972 29.8332 36.747 29.8332 37.3333C29.8332 37.9197 29.6399 38.3695 29.3379 38.6714C29.036 38.9734 28.5862 39.1667 27.9998 39.1667C27.4135 39.1667 26.9637 38.9734 26.6617 38.6714C26.3598 38.3695 26.1665 37.9197 26.1665 37.3333ZM33.1665 37.3333C33.1665 36.747 33.3598 36.2972 33.6617 35.9952C33.9637 35.6933 34.4135 35.5 34.9998 35.5C35.5862 35.5 36.036 35.6933 36.3379 35.9952C36.6399 36.2972 36.8332 36.747 36.8332 37.3333C36.8332 37.9197 36.6399 38.3695 36.3379 38.6714C36.036 38.9734 35.5862 39.1667 34.9998 39.1667C34.4135 39.1667 33.9637 38.9734 33.6617 38.6714C33.3598 38.3695 33.1665 37.9197 33.1665 37.3333ZM42.4998 44.3333C42.4998 43.747 42.6931 43.2972 42.9951 42.9952C43.297 42.6933 43.7468 42.5 44.3332 42.5C44.9195 42.5 45.3693 42.6933 45.6713 42.9952C45.9732 43.2972 46.1665 43.747 46.1665 44.3333C46.1665 44.9197 45.9732 45.3695 45.6713 45.6714C45.3693 45.9734 44.9195 46.1667 44.3332 46.1667C43.7468 46.1667 43.297 45.9734 42.9951 45.6714C42.6931 45.3695 42.4998 44.9197 42.4998 44.3333ZM13.9998 42.5C14.5862 42.5 15.036 42.6933 15.3379 42.9952C15.6399 43.2972 15.8332 43.747 15.8332 44.3333C15.8332 44.9197 15.6399 45.3695 15.3379 45.6714C15.036 45.9734 14.5862 46.1667 13.9998 46.1667H11.6665C11.0801 46.1667 10.6303 45.9734 10.3284 45.6714C10.0264 45.3695 9.83317 44.9197 9.83317 44.3333C9.83317 43.747 10.0264 43.2972 10.3284 42.9952C10.6303 42.6933 11.0801 42.5 11.6665 42.5H13.9998ZM13.9998 35.5C14.5862 35.5 15.036 35.6933 15.3379 35.9952C15.6399 36.2972 15.8332 36.747 15.8332 37.3333C15.8332 37.9197 15.6399 38.3695 15.3379 38.6714C15.036 38.9734 14.5862 39.1667 13.9998 39.1667H11.6665C11.0801 39.1667 10.6303 38.9734 10.3284 38.6714C10.0264 38.3695 9.83317 37.9197 9.83317 37.3333C9.83317 36.747 10.0264 36.2972 10.3284 35.9952C10.6303 35.6933 11.0801 35.5 11.6665 35.5H13.9998ZM44.3332 32.1667H39.6665C39.0801 32.1667 38.6303 31.9734 38.3284 31.6714C38.0264 31.3695 37.8332 30.9197 37.8332 30.3333C37.8332 29.747 38.0264 29.2972 38.3284 28.9952C38.6303 28.6933 39.0801 28.5 39.6665 28.5H44.3332C44.9195 28.5 45.3693 28.6933 45.6713 28.9952C45.9732 29.2972 46.1665 29.747 46.1665 30.3333C46.1665 30.9197 45.9732 31.3695 45.6713 31.6714C45.3693 31.9734 44.9195 32.1667 44.3332 32.1667ZM44.3332 39.1667H41.9998C41.4135 39.1667 40.9637 38.9734 40.6617 38.6714C40.3598 38.3695 40.1665 37.9197 40.1665 37.3333C40.1665 36.747 40.3598 36.2972 40.6617 35.9952C40.9637 35.6933 41.4135 35.5 41.9998 35.5H44.3332C44.9195 35.5 45.3693 35.6933 45.6713 35.9952C45.9732 36.2972 46.1665 36.747 46.1665 37.3333C46.1665 37.9197 45.9732 38.3695 45.6713 38.6714C45.3693 38.9734 44.9195 39.1667 44.3332 39.1667ZM37.3332 42.5C37.9195 42.5 38.3693 42.6933 38.6713 42.9952C38.9732 43.2972 39.1665 43.747 39.1665 44.3333C39.1665 44.9197 38.9732 45.3695 38.6713 45.6714C38.3693 45.9734 37.9195 46.1667 37.3332 46.1667H20.9998C20.4135 46.1667 19.9637 45.9734 19.6617 45.6714C19.3598 45.3695 19.1665 44.9197 19.1665 44.3333C19.1665 43.747 19.3598 43.2972 19.6617 42.9952C19.9637 42.6933 20.4135 42.5 20.9998 42.5H37.3332Z" fill="#EFF6FF" stroke="#1E3A8A"/>
</svg>
