<svg width="24" height="24" viewBox="0 0 24 24" fill="none" xmlns="http://www.w3.org/2000/svg">
<path d="M0 1.76716C0 0.818224 0.794437 0.0479736 1.77375 0.0479736H22.2263C23.2059 0.0479736 24 0.818224 24 1.76716V22.3291C24 23.2783 23.2059 24.048 22.2263 24.048H1.77375C0.794531 24.048 0 23.2784 0 22.3293V1.76688V1.76716Z" fill="black"/>
<path d="M7.29269 20.1332V9.32831H3.70131V20.1332H7.29306H7.29269ZM5.49775 7.85334C6.74987 7.85334 7.52941 7.02366 7.52941 5.98678C7.50597 4.92628 6.74987 4.11975 5.52156 4.11975C4.29241 4.11975 3.48962 4.92628 3.48962 5.98669C3.48962 7.02356 4.26887 7.85325 5.47422 7.85325H5.49747L5.49775 7.85334ZM9.28056 20.1332H12.8717V14.0999C12.8717 13.7774 12.8951 13.4541 12.99 13.2237C13.2495 12.5782 13.8404 11.9101 14.8327 11.9101C16.1319 11.9101 16.6519 12.9008 16.6519 14.3535V20.1332H20.2429V13.938C20.2429 10.6193 18.4714 9.075 16.1087 9.075C14.1715 9.075 13.3207 10.1577 12.848 10.8952H12.8719V9.32869H9.28075C9.32762 10.3423 9.28047 20.1336 9.28047 20.1336L9.28056 20.1332Z" fill="white"/>
</svg>
