<svg width="56" height="56" viewBox="0 0 56 56" fill="none" xmlns="http://www.w3.org/2000/svg">
<path opacity="0.79" d="M9.45992 35.4624C19.4722 18.1258 31.6826 7.6141 48.8326 4.69977C49.1701 4.63955 49.5171 4.66177 49.8442 4.76453C50.1712 4.86729 50.4686 5.04755 50.711 5.28996C50.9535 5.53238 51.1337 5.82977 51.2365 6.15683C51.3392 6.48389 51.3615 6.83094 51.3012 7.16843C48.3869 24.3184 37.8752 36.5288 20.5386 46.5411L9.45992 35.4624ZM8.91158 40.4534L6.14425 47.7124C6.02999 48.012 6.00484 48.3381 6.07183 48.6516C6.13881 48.9652 6.29507 49.2526 6.52175 49.4793C6.74844 49.7059 7.03586 49.8622 7.34936 49.9292C7.66287 49.9962 7.98905 49.971 8.28858 49.8568L15.5522 47.0871L8.91158 40.4534ZM38.5006 13.9958C37.8083 13.9958 37.1317 14.201 36.5561 14.5856C35.9805 14.9702 35.5319 15.5168 35.267 16.1564C35.0021 16.7959 34.9328 17.4996 35.0678 18.1786C35.2029 18.8575 35.5362 19.4812 36.0257 19.9706C36.5152 20.4601 37.1388 20.7935 37.8178 20.9285C38.4967 21.0636 39.2004 20.9942 39.84 20.7293C40.4795 20.4644 41.0261 20.0158 41.4107 19.4403C41.7953 18.8647 42.0006 18.188 42.0006 17.4958C42.0006 16.5675 41.6318 15.6773 40.9755 15.0209C40.3191 14.3645 39.4288 13.9958 38.5006 13.9958Z" fill="white" stroke="#4338CA" stroke-linejoin="round"/>
<path d="M9.45971 35.4624L5.24338 31.2461C5.02828 31.031 4.86594 30.7691 4.76906 30.4807C4.67219 30.1924 4.64341 29.8855 4.685 29.5842C4.72659 29.2829 4.83742 28.9953 5.00878 28.744C5.18015 28.4927 5.40739 28.2845 5.6727 28.1358L21.3574 19.3414C16.7381 24.2007 12.7415 29.616 9.45971 35.4624V35.4624ZM20.5337 46.5364L24.75 50.7528C24.9651 50.9679 25.2271 51.1302 25.5154 51.2271C25.8037 51.324 26.1106 51.3527 26.4119 51.3111C26.7132 51.2695 27.0008 51.1587 27.2521 50.9874C27.5034 50.816 27.7116 50.5887 27.8604 50.3234L36.6547 34.6364C31.796 39.2571 26.3807 43.2546 20.5337 46.5364V46.5364ZM16.427 42.4274L29.3607 29.4938C29.722 29.1104 29.9197 28.6014 29.9119 28.0747C29.9041 27.548 29.6914 27.045 29.319 26.6725C28.9465 26.3 28.4435 26.0873 27.9168 26.0795C27.3901 26.0717 26.881 26.2695 26.4977 26.6308L13.564 39.5644L16.427 42.4274Z" fill="white" stroke="#4338CA" stroke-linejoin="round"/>
</svg>
