<svg width="56" height="56" viewBox="0 0 56 56" fill="none" xmlns="http://www.w3.org/2000/svg">
<path d="M44.4937 41.4271H25.827C25.0134 41.4271 24.2965 41.7005 23.7818 42.2152C23.267 42.73 22.9937 43.4468 22.9937 44.2605V46.5938C22.9937 47.4074 23.267 48.1243 23.7818 48.639C24.2965 49.1537 25.0134 49.4271 25.827 49.4271H44.4937C45.3073 49.4271 46.0241 49.1537 46.5389 48.639C47.0536 48.1243 47.327 47.4074 47.327 46.5938V44.2605C47.327 43.4468 47.0536 42.73 46.5389 42.2152C46.0241 41.7005 45.3073 41.4271 44.4937 41.4271Z" fill="#F0F9FF" stroke="#1E3A8A"/>
<path d="M8.26491 41.4158L8.28076 41.4243L8.29718 41.4316C8.31143 41.438 8.32579 41.4444 8.34025 41.4509C8.8293 41.6694 9.43497 41.94 10.0641 41.94C11.0243 41.94 11.9212 41.3827 12.4812 40.8829L12.5187 40.8494L12.5488 40.809L22.9696 26.8579C23.3069 26.4064 23.4598 25.8304 23.4598 25.2799C23.4598 24.7294 23.3069 24.1534 22.9696 23.7019L12.5559 9.76027C11.5967 8.34613 9.73516 8.12418 8.26491 8.91152C7.49824 9.32208 7.0058 9.95954 6.84072 10.6962C6.67668 11.4284 6.84733 12.2066 7.30447 12.8866L7.3114 12.8969L7.31883 12.9068L16.474 25.1637L7.31883 37.4205L7.3114 37.4305L7.30447 37.4408C6.84733 38.1208 6.67668 38.8989 6.84072 39.6311C7.0058 40.3678 7.49824 41.0053 8.26491 41.4158Z" fill="#F0F9FF" stroke="#1E3A8A"/>
</svg>
