<svg width="24" height="24" viewBox="0 0 24 24" fill="none" xmlns="http://www.w3.org/2000/svg">
<path d="M7.54776 22C16.6048 22 21.5578 14.6909 21.5578 8.35268C21.5578 8.1451 21.5534 7.93848 21.5438 7.73271C22.5075 7.05342 23.3393 6.21235 24 5.24893C23.1177 5.63103 22.1683 5.88819 21.1723 6.00414C22.1889 5.41034 22.9694 4.47093 23.3376 3.35117C22.371 3.90972 21.3136 4.30347 20.2109 4.51544C19.3123 3.58311 18.0331 3 16.6166 3C13.8974 3 11.6923 5.14804 11.6923 7.79584C11.6923 8.17227 11.7356 8.53831 11.8201 8.88952C7.72766 8.68893 4.09878 6.78029 1.67015 3.87808C1.23273 4.61008 1.00265 5.442 1.00341 6.2889C1.00341 7.95301 1.87268 9.42205 3.19463 10.2815C2.41268 10.2582 1.6479 10.0525 0.964585 9.68159C0.963854 9.70173 0.963854 9.72135 0.963854 9.74286C0.963854 12.0658 2.66112 14.0052 4.91419 14.4447C4.49104 14.557 4.05439 14.6137 3.6158 14.6135C3.29907 14.6135 2.99039 14.5831 2.69039 14.527C3.31727 16.4328 5.13502 17.8197 7.29019 17.8584C5.60488 19.1452 3.4819 19.9116 1.17454 19.9116C0.782024 19.9119 0.389833 19.8897 0 19.8451C2.17922 21.2058 4.76659 22 7.54776 22Z" fill="black"/>
</svg>
