<svg width="56" height="56" viewBox="0 0 56 56" fill="none" xmlns="http://www.w3.org/2000/svg">
<path d="M45.7674 11.6517L45.7678 11.6518C47.5612 12.1462 48.984 13.6077 49.4677 15.4744L49.4678 15.4747C49.9321 17.2626 50.1703 20.0602 50.29 22.4457C50.3495 23.6312 50.3793 24.7026 50.3942 25.4776C50.4016 25.865 50.4053 26.1781 50.4072 26.3941C50.4081 26.502 50.4085 26.5857 50.4088 26.6422L50.409 26.7063L50.409 26.7224L50.409 26.7263V26.7272V26.7275L50.909 26.7275L50.409 26.7275V26.7277V26.7286L50.409 26.7326L50.409 26.7487L50.4088 26.8127C50.4085 26.8692 50.4081 26.9529 50.4072 27.0609C50.4053 27.2768 50.4016 27.5899 50.3941 27.9773C50.3792 28.7522 50.3495 29.8235 50.2899 31.009C50.1702 33.3944 49.9319 36.1919 49.4676 37.9801L49.4675 37.9804C48.9838 39.847 47.5611 41.3084 45.7675 41.8032L45.7673 41.8033C44.9275 42.0354 43.4083 42.2184 41.5587 42.3575C39.7235 42.4956 37.6059 42.5879 35.595 42.6495C33.5849 42.7111 31.6857 42.7419 30.2888 42.7573C29.5904 42.765 29.0178 42.7689 28.6199 42.7708C28.421 42.7718 28.2658 42.7723 28.1604 42.7725L28.0404 42.7727L28.0098 42.7727L28.0022 42.7727H28.0003H27.9998C27.9998 42.7727 27.9997 42.7727 27.9997 43.2727C27.9997 42.7727 27.9997 42.7727 27.9996 42.7727H27.9991H27.9972L27.9896 42.7727L27.9591 42.7727L27.8391 42.7725C27.7337 42.7723 27.5784 42.7718 27.3795 42.7708C26.9817 42.7689 26.4091 42.765 25.7107 42.7573C24.3138 42.7419 22.4146 42.7111 20.4045 42.6495C18.3937 42.5879 16.276 42.4956 14.4408 42.3575C12.5912 42.2184 11.072 42.0354 10.2321 41.8033L10.232 41.8032C8.4385 41.3082 7.01541 39.8469 6.53217 37.9803L6.53208 37.9799C6.06778 36.1917 5.8296 33.3942 5.70985 31.0088C5.65035 29.8233 5.62057 28.752 5.60569 27.9771C5.59824 27.5897 5.59453 27.2766 5.59267 27.0607C5.59174 26.9527 5.59128 26.869 5.59105 26.8125L5.59085 26.7485L5.59082 26.7324L5.59082 26.7284L5.59082 26.7275L5.59082 26.7273L5.09082 26.7273L5.59082 26.7273L5.59082 26.7271L5.59082 26.7261L5.59082 26.7222L5.59085 26.7061L5.59105 26.642C5.59128 26.5855 5.59174 26.5018 5.59267 26.3939C5.59453 26.1779 5.59824 25.8648 5.60569 25.4774C5.62057 24.7024 5.65035 23.6311 5.70985 22.4456C5.8296 20.0601 6.06778 17.2626 6.53207 15.4747L6.53216 15.4743C7.01542 13.6078 8.43853 12.1462 10.232 11.6518L10.2324 11.6517C11.0723 11.4194 12.5914 11.2364 14.441 11.0972C16.2762 10.9591 18.3939 10.8667 20.4047 10.8051C22.4148 10.7435 24.314 10.7126 25.7109 10.6972C26.4093 10.6895 26.9818 10.6857 27.3797 10.6837C27.5786 10.6828 27.7339 10.6823 27.8393 10.6821L27.9593 10.6819L27.9898 10.6818L27.9974 10.6818L27.9993 10.6818L27.9998 10.6818C27.9999 10.6818 27.9999 10.6818 27.9999 10.1818C27.9999 10.6818 28 10.6818 28 10.6818L28.0005 10.6818L28.0024 10.6818L28.01 10.6818L28.0406 10.6819L28.1606 10.6821C28.266 10.6823 28.4212 10.6828 28.6201 10.6837C29.018 10.6857 29.5906 10.6895 30.289 10.6972C31.6859 10.7126 33.5851 10.7435 35.5952 10.8051C37.606 10.8667 39.7237 10.9591 41.5589 11.0972C43.4085 11.2364 44.9276 11.4194 45.7674 11.6517ZM35.8599 27.1745L36.7543 26.7273L35.8599 26.2801L23.1326 19.9164L22.409 19.5546V20.3636V33.0909V33.8999L23.1326 33.5381L35.8599 27.1745Z" fill="white" fill-opacity="0.8" stroke="#4338CA"/>
</svg>
